<svg xmlns="http://www.w3.org/2000/svg" xmlns:xlink="http://www.w3.org/1999/xlink" width="118" height="118" viewBox="0 0 118 118"><defs><linearGradient id="linear-gradient" x1="0.146" y1="0.146" x2="0.854" y2="0.854" gradientUnits="objectBoundingBox"><stop offset="0" stop-color="#fae100"></stop><stop offset="0.15" stop-color="#fcb720"></stop><stop offset="0.3" stop-color="#ff7950"></stop><stop offset="0.5" stop-color="#ff1c74"></stop><stop offset="1" stop-color="#6c1cd1"></stop></linearGradient></defs><g id="Layer_2" data-name="Layer 2" transform="translate(0.375 0.375)"><g id="Circle" transform="translate(-0.375 -0.375)"><g id="_03.Instagram" data-name="03.Instagram" transform="translate(0 0)"><rect id="Background" width="118" height="118" rx="59" transform="translate(0 0)" fill="url(#linear-gradient)"></rect><g id="Group_1" data-name="Group 1" transform="translate(0.455 0.443)"><path id="Shade" d="M102.633,20.033a208.774,208.774,0,0,1-35.7,46.923,209.051,209.051,0,0,1-46.9,35.674q-1.472-1.279-2.859-2.666a58.553,58.553,0,1,1,82.8-82.818q1.378,1.4,2.66,2.887Z" transform="translate(-0.016 0)" fill="#fff" opacity="0.1"></path><g id="Icon" transform="translate(27.725 27.738)"><path id="Path_2" data-name="Path 2" d="M80.688,36H52.951A16.951,16.951,0,0,0,36,52.951V80.688A16.951,16.951,0,0,0,52.951,97.639H80.688A16.951,16.951,0,0,0,97.639,80.688V52.951A16.951,16.951,0,0,0,80.688,36ZM92.246,78.254A13.992,13.992,0,0,1,78.254,92.246H55.386A13.992,13.992,0,0,1,41.393,78.254V55.386A13.992,13.992,0,0,1,55.386,41.393H78.254A13.992,13.992,0,0,1,92.246,55.386Z" transform="translate(-36 -36)" fill="#fff"></path><path id="Path_3" data-name="Path 3" d="M82.564,60.13l-.146-.146-.123-.123a15.533,15.533,0,0,0-10.972-4.53,15.81,15.81,0,0,0-15.7,15.926,15.988,15.988,0,0,0,4.623,11.257,15.556,15.556,0,0,0,11.11,4.623A15.972,15.972,0,0,0,82.564,60.13ZM71.322,81.7a10.448,10.448,0,1,1,10.3-10.448A10.448,10.448,0,0,1,71.322,81.7Z" transform="translate(-40.503 -40.436)" fill="#fff"></path><path id="Path_4" data-name="Path 4" d="M100.206,53.255a3.76,3.76,0,0,1-3.737,3.791,3.706,3.706,0,0,1-2.635-1.1,3.8,3.8,0,0,1,2.643-6.464,3.714,3.714,0,0,1,2.381.863l.077.077a2.351,2.351,0,0,1,.339.339l.085.092a3.791,3.791,0,0,1,.848,2.4Z" transform="translate(-49.023 -39.094)" fill="#fff"></path></g></g></g></g></g></svg>